<?xml version="1.0" standalone="no"?>
<!DOCTYPE svg PUBLIC "-//W3C//DTD SVG 20010904//EN"
        "http://www.w3.org/TR/2001/REC-SVG-20010904/DTD/svg10.dtd">
<svg version="1.0" xmlns="http://www.w3.org/2000/svg"
     width="816.000000pt" height="307.000000pt" viewBox="0 0 816.000000 307.000000"
     preserveAspectRatio="xMidYMid meet">

    <g transform="translate(0.000000,307.000000) scale(0.100000,-0.100000)"
       fill="#9c9c9c" stroke="none">
        <path fill="#229fff" d="M2992 3010 c-241 -63 -424 -248 -483 -490 -23 -92 -16 -251 15 -345
76 -236 262 -401 507 -451 214 -43 430 25 590 186 84 84 146 193 174 305 19
76 19 234 0 310 -60 235 -249 426 -481 485 -99 26 -224 25 -322 0z"/>
        <path d="M299 2935 c-58 -31 -59 -47 -59 -606 0 -563 0 -562 62 -596 30 -16
64 -18 385 -18 342 0 352 1 380 21 36 27 50 73 33 114 -24 57 -41 60 -345 60
l-275 0 0 475 c0 522 0 519 -60 550 -36 19 -87 19 -121 0z"/>
        <path d="M1571 2934 c-208 -45 -358 -190 -417 -404 -25 -91 -25 -319 0 -410
58 -211 197 -354 397 -407 85 -22 262 -22 347 0 108 29 172 65 248 141 110
110 159 232 170 421 21 345 -149 599 -441 660 -87 18 -219 18 -304 -1z m281
-199 c94 -33 171 -127 203 -250 19 -74 20 -252 1 -322 -31 -114 -96 -202 -185
-245 -39 -20 -62 -23 -151 -23 -90 0 -111 3 -147 23 -128 68 -195 206 -196
402 -1 233 93 387 260 430 50 12 157 5 215 -15z"/>
        <path fill="#229fff" d="M2666 1699 c-22 -20 -72 -148 -276 -709 -137 -377 -250 -697 -250
-711 0 -40 44 -77 120 -100 75 -22 109 -17 133 23 8 13 126 332 262 710 237
657 247 689 235 719 -15 35 -85 73 -156 85 -34 5 -45 2 -68 -17z"/>
        <path d="M1223 1385 c-33 -33 -35 -38 -31 -88 3 -33 65 -215 173 -507 202
-552 198 -541 246 -585 72 -65 196 -46 248 38 28 46 391 1032 391 1062 0 65
-55 115 -125 115 -69 0 -76 -15 -244 -514 -84 -251 -157 -456 -160 -456 -3 0
-64 174 -135 388 -196 591 -192 582 -283 582 -38 0 -50 -5 -80 -35z"/>
        <path d="M4043 1380 c-21 -12 -36 -32 -44 -58 -10 -36 -2 -77 111 -538 68
-281 133 -522 147 -552 16 -34 35 -58 55 -68 63 -33 156 -14 190 39 22 32 51
130 159 529 52 192 97 348 100 348 3 0 49 -163 103 -362 121 -451 135 -495
167 -529 65 -70 186 -53 229 32 19 36 250 947 266 1046 11 74 -41 133 -118
133 -42 0 -76 -24 -94 -65 -7 -17 -52 -204 -99 -416 -47 -211 -88 -385 -90
-388 -6 -6 -6 -7 -111 379 -102 381 -117 421 -158 460 -24 22 -37 25 -96 25
-62 0 -72 -3 -98 -28 -16 -16 -37 -45 -46 -65 -9 -20 -59 -197 -111 -392 -102
-382 -103 -385 -110 -379 -2 2 -42 177 -90 388 -47 210 -92 398 -99 416 -27
64 -99 84 -163 45z"/>
        <path d="M3018 1364 c-59 -31 -58 -25 -58 -591 0 -557 -1 -547 53 -587 27 -20
41 -21 375 -24 401 -4 440 -1 476 35 28 28 35 78 15 115 -23 43 -60 48 -379
48 l-300 0 0 175 0 175 275 0 c331 0 345 4 345 91 0 83 -23 89 -351 89 l-269
0 0 150 0 150 278 0 c152 0 295 5 317 10 50 11 75 41 75 90 0 30 -6 44 -31 64
l-31 26 -381 0 c-318 -1 -387 -3 -409 -16z"/>
        <path d="M5762 1365 c-62 -27 -62 -28 -62 -598 l0 -514 23 -34 c16 -25 35 -37
67 -46 55 -14 705 -17 765 -3 22 5 48 19 58 31 19 24 23 80 6 111 -23 43 -60
48 -379 48 l-300 0 0 175 0 175 275 0 c304 0 321 3 345 60 10 24 10 36 0 60
-24 57 -41 60 -345 60 l-275 0 0 150 0 150 278 0 c152 0 295 5 317 10 49 11
75 41 75 85 0 95 0 95 -442 95 -301 -1 -379 -4 -406 -15z"/>
        <path d="M6902 1365 c-62 -27 -62 -27 -62 -608 l0 -524 23 -34 c45 -67 143
-70 191 -6 20 27 21 43 24 264 l3 236 89 -5 c151 -9 181 -36 346 -310 113
-187 134 -214 180 -227 63 -17 136 18 149 72 19 75 -164 375 -280 458 l-46 33
65 22 c35 12 79 31 98 42 116 72 170 211 134 350 -33 131 -118 212 -254 241
-83 17 -618 14 -660 -4z m598 -191 c55 -32 80 -77 80 -143 0 -74 -25 -116 -88
-144 -41 -18 -70 -22 -229 -25 l-183 -4 0 172 0 172 193 -4 c172 -3 196 -5
227 -24z"/>
    </g>
</svg>
